<svg xmlns="http://www.w3.org/2000/svg" viewBox="0 0 1080 1080" width="1080" height="1080" preserveAspectRatio="xMidYMid meet" style="width: 100%; height: 100%; transform: translate3d(0px, 0px, 0px); content-visibility: visible;"><defs><clipPath id="__lottie_element_104"><rect width="1080" height="1080" x="0" y="0"></rect></clipPath><clipPath id="__lottie_element_107"><path fill="#ffffff" clip-rule="nonzero" d=" M-380.81201171875,-520.7529907226562 C-380.81201171875,-520.7529907226562 -571.6920166015625,-520.7529907226562 -571.6920166015625,-520.7529907226562 C-571.6920166015625,-520.7529907226562 -571.6920166015625,-329.87298583984375 -571.6920166015625,-329.87298583984375 C-571.6920166015625,-329.87298583984375 -380.81201171875,-329.87298583984375 -380.81201171875,-329.87298583984375 C-380.81201171875,-329.87298583984375 -380.81201171875,-520.7529907226562 -380.81201171875,-520.7529907226562" fill-opacity="1"></path></clipPath><clipPath id="__lottie_element_110"><path fill="#ffffff" clip-rule="nonzero" d=" M-381.239990234375,-709.7529907226562 C-381.239990234375,-709.7529907226562 -572.1199951171875,-709.7529907226562 -572.1199951171875,-709.7529907226562 C-572.1199951171875,-709.7529907226562 -572.1199951171875,-518.8729858398438 -572.1199951171875,-518.8729858398438 C-572.1199951171875,-518.8729858398438 -381.239990234375,-518.8729858398438 -381.239990234375,-518.8729858398438 C-381.239990234375,-518.8729858398438 -381.239990234375,-709.7529907226562 -381.239990234375,-709.7529907226562" fill-opacity="1"></path></clipPath><clipPath id="__lottie_element_113"><path fill="#ffffff" clip-rule="nonzero" d=" M-380.95599365234375,-332.75299072265625 C-380.95599365234375,-332.75299072265625 -571.8350219726562,-332.75299072265625 -571.8350219726562,-332.75299072265625 C-571.8350219726562,-332.75299072265625 -571.8350219726562,-141.8730010986328 -571.8350219726562,-141.8730010986328 C-571.8350219726562,-141.8730010986328 -380.95599365234375,-141.8730010986328 -380.95599365234375,-141.8730010986328 C-380.95599365234375,-141.8730010986328 -380.95599365234375,-332.75299072265625 -380.95599365234375,-332.75299072265625" fill-opacity="1"></path></clipPath><clipPath id="__lottie_element_116"><path fill="#ffffff" clip-rule="nonzero" d=" M-381.2430114746094,-143.7530059814453 C-381.2430114746094,-143.7530059814453 -572.1229858398438,-143.7530059814453 -572.1229858398438,-143.7530059814453 C-572.1229858398438,-143.7530059814453 -572.1229858398438,47.12699890136719 -572.1229858398438,47.12699890136719 C-572.1229858398438,47.12699890136719 -381.2430114746094,47.12699890136719 -381.2430114746094,47.12699890136719 C-381.2430114746094,47.12699890136719 -381.2430114746094,-143.7530059814453 -381.2430114746094,-143.7530059814453" fill-opacity="1"></path></clipPath><clipPath id="__lottie_element_119"><path fill="#ffffff" clip-rule="nonzero" d=" M-192.20399475097656,-709.5120239257812 C-192.20399475097656,-709.5120239257812 -383.0840148925781,-709.5120239257812 -383.0840148925781,-709.5120239257812 C-383.0840148925781,-709.5120239257812 -383.0840148925781,-518.6320190429688 -383.0840148925781,-518.6320190429688 C-383.0840148925781,-518.6320190429688 -192.20399475097656,-518.6320190429688 -192.20399475097656,-518.6320190429688 C-192.20399475097656,-518.6320190429688 -192.20399475097656,-709.5120239257812 -192.20399475097656,-709.5120239257812" fill-opacity="1"></path></clipPath><clipPath id="__lottie_element_122"><path fill="#ffffff" clip-rule="nonzero" d=" M-191.7760009765625,-520.5120239257812 C-191.7760009765625,-520.5120239257812 -382.656005859375,-520.5120239257812 -382.656005859375,-520.5120239257812 C-382.656005859375,-520.5120239257812 -382.656005859375,-329.6319885253906 -382.656005859375,-329.6319885253906 C-382.656005859375,-329.6319885253906 -191.7760009765625,-329.6319885253906 -191.7760009765625,-329.6319885253906 C-191.7760009765625,-329.6319885253906 -191.7760009765625,-520.5120239257812 -191.7760009765625,-520.5120239257812" fill-opacity="1"></path></clipPath><clipPath id="__lottie_element_125"><path fill="#ffffff" clip-rule="nonzero" d=" M-191.9199981689453,-332.5119934082031 C-191.9199981689453,-332.5119934082031 -382.79901123046875,-332.5119934082031 -382.79901123046875,-332.5119934082031 C-382.79901123046875,-332.5119934082031 -382.79901123046875,-141.6320037841797 -382.79901123046875,-141.6320037841797 C-382.79901123046875,-141.6320037841797 -191.9199981689453,-141.6320037841797 -191.9199981689453,-141.6320037841797 C-191.9199981689453,-141.6320037841797 -191.9199981689453,-332.5119934082031 -191.9199981689453,-332.5119934082031" fill-opacity="1"></path></clipPath><clipPath id="__lottie_element_128"><path fill="#ffffff" clip-rule="nonzero" d=" M-192.20700073242188,-143.51199340820312 C-192.20700073242188,-143.51199340820312 -383.0870056152344,-143.51199340820312 -383.0870056152344,-143.51199340820312 C-383.0870056152344,-143.51199340820312 -383.0870056152344,47.36800003051758 -383.0870056152344,47.36800003051758 C-383.0870056152344,47.36800003051758 -192.20700073242188,47.36800003051758 -192.20700073242188,47.36800003051758 C-192.20700073242188,47.36800003051758 -192.20700073242188,-143.51199340820312 -192.20700073242188,-143.51199340820312" fill-opacity="1"></path></clipPath><clipPath id="__lottie_element_131"><path fill="#ffffff" clip-rule="nonzero" d=" M-3.1679999828338623,-709.6480102539062 C-3.1679999828338623,-709.6480102539062 -194.04800415039062,-709.6480102539062 -194.04800415039062,-709.6480102539062 C-194.04800415039062,-709.6480102539062 -194.04800415039062,-518.7680053710938 -194.04800415039062,-518.7680053710938 C-194.04800415039062,-518.7680053710938 -3.1679999828338623,-518.7680053710938 -3.1679999828338623,-518.7680053710938 C-3.1679999828338623,-518.7680053710938 -3.1679999828338623,-709.6480102539062 -3.1679999828338623,-709.6480102539062" fill-opacity="1"></path></clipPath><clipPath id="__lottie_element_134"><path fill="#ffffff" clip-rule="nonzero" d=" M-2.740000009536743,-520.6480102539062 C-2.740000009536743,-520.6480102539062 -193.6199951171875,-520.6480102539062 -193.6199951171875,-520.6480102539062 C-193.6199951171875,-520.6480102539062 -193.6199951171875,-329.76800537109375 -193.6199951171875,-329.76800537109375 C-193.6199951171875,-329.76800537109375 -2.740000009536743,-329.76800537109375 -2.740000009536743,-329.76800537109375 C-2.740000009536743,-329.76800537109375 -2.740000009536743,-520.6480102539062 -2.740000009536743,-520.6480102539062" fill-opacity="1"></path></clipPath><clipPath id="__lottie_element_137"><path fill="#ffffff" clip-rule="nonzero" d=" M-2.884000062942505,-332.64801025390625 C-2.884000062942505,-332.64801025390625 -193.76300048828125,-332.64801025390625 -193.76300048828125,-332.64801025390625 C-193.76300048828125,-332.64801025390625 -193.76300048828125,-141.76800537109375 -193.76300048828125,-141.76800537109375 C-193.76300048828125,-141.76800537109375 -2.884000062942505,-141.76800537109375 -2.884000062942505,-141.76800537109375 C-2.884000062942505,-141.76800537109375 -2.884000062942505,-332.64801025390625 -2.884000062942505,-332.64801025390625" fill-opacity="1"></path></clipPath><clipPath id="__lottie_element_140"><path fill="#ffffff" clip-rule="nonzero" d=" M-3.1710000038146973,-143.6479949951172 C-3.1710000038146973,-143.6479949951172 -194.05099487304688,-143.6479949951172 -194.05099487304688,-143.6479949951172 C-194.05099487304688,-143.6479949951172 -194.05099487304688,47.231998443603516 -194.05099487304688,47.231998443603516 C-194.05099487304688,47.231998443603516 -3.1710000038146973,47.231998443603516 -3.1710000038146973,47.231998443603516 C-3.1710000038146973,47.231998443603516 -3.1710000038146973,-143.6479949951172 -3.1710000038146973,-143.6479949951172" fill-opacity="1"></path></clipPath><clipPath id="__lottie_element_143"><path fill="#ffffff" clip-rule="nonzero" d=" M-570.2760009765625,-709.7529907226562 C-570.2760009765625,-709.7529907226562 -761.156005859375,-709.7529907226562 -761.156005859375,-709.7529907226562 C-761.156005859375,-709.7529907226562 -761.156005859375,-518.8729858398438 -761.156005859375,-518.8729858398438 C-761.156005859375,-518.8729858398438 -570.2760009765625,-518.8729858398438 -570.2760009765625,-518.8729858398438 C-570.2760009765625,-518.8729858398438 -570.2760009765625,-709.7529907226562 -570.2760009765625,-709.7529907226562" fill-opacity="1"></path></clipPath><clipPath id="__lottie_element_146"><path fill="#ffffff" clip-rule="nonzero" d=" M-569.8480224609375,-520.7529907226562 C-569.8480224609375,-520.7529907226562 -760.72802734375,-520.7529907226562 -760.72802734375,-520.7529907226562 C-760.72802734375,-520.7529907226562 -760.72802734375,-329.87298583984375 -760.72802734375,-329.87298583984375 C-760.72802734375,-329.87298583984375 -569.8480224609375,-329.87298583984375 -569.8480224609375,-329.87298583984375 C-569.8480224609375,-329.87298583984375 -569.8480224609375,-520.7529907226562 -569.8480224609375,-520.7529907226562" fill-opacity="1"></path></clipPath><clipPath id="__lottie_element_149"><path fill="#ffffff" clip-rule="nonzero" d=" M-569.9910278320312,-332.75299072265625 C-569.9910278320312,-332.75299072265625 -760.8709716796875,-332.75299072265625 -760.8709716796875,-332.75299072265625 C-760.8709716796875,-332.75299072265625 -760.8709716796875,-141.8730010986328 -760.8709716796875,-141.8730010986328 C-760.8709716796875,-141.8730010986328 -569.9910278320312,-141.8730010986328 -569.9910278320312,-141.8730010986328 C-569.9910278320312,-141.8730010986328 -569.9910278320312,-332.75299072265625 -569.9910278320312,-332.75299072265625" fill-opacity="1"></path></clipPath><clipPath id="__lottie_element_152"><path fill="#ffffff" clip-rule="nonzero" d=" M-570.2789916992188,-143.7530059814453 C-570.2789916992188,-143.7530059814453 -761.1589965820312,-143.7530059814453 -761.1589965820312,-143.7530059814453 C-761.1589965820312,-143.7530059814453 -761.1589965820312,47.12699890136719 -761.1589965820312,47.12699890136719 C-761.1589965820312,47.12699890136719 -570.2789916992188,47.12699890136719 -570.2789916992188,47.12699890136719 C-570.2789916992188,47.12699890136719 -570.2789916992188,-143.7530059814453 -570.2789916992188,-143.7530059814453" fill-opacity="1"></path></clipPath></defs><g clip-path="url(#__lottie_element_104)"><g clip-path="url(#__lottie_element_107)" transform="matrix(0.6028082966804504,0.36659789085388184,-0.36659789085388184,0.6028082966804504,623.0127563476562,934.392333984375)" opacity="1" style="display: block;"><g opacity="1" transform="matrix(6.244810104370117,0,0,6.244810104370117,-382.6679992675781,-331.447998046875)"><path fill="rgb(28,232,181)" fill-opacity="1" d=" M60.38100051879883,-60.38100051879883 C60.38100051879883,-60.38100051879883 60.38100051879883,60.38100051879883 60.38100051879883,60.38100051879883 C60.38100051879883,60.38100051879883 -60.38100051879883,60.38100051879883 -60.38100051879883,60.38100051879883 C-60.38100051879883,60.38100051879883 -60.38100051879883,-60.38100051879883 -60.38100051879883,-60.38100051879883 C-60.38100051879883,-60.38100051879883 60.38100051879883,-60.38100051879883 60.38100051879883,-60.38100051879883z"></path></g></g><g clip-path="url(#__lottie_element_110)" transform="matrix(0.5550225377082825,0,0,0.5550225377082825,712.059814453125,642.7555541992188)" opacity="1" style="display: block;"><g opacity="1" transform="matrix(6.244810104370117,0,0,6.244810104370117,-382.6679992675781,-331.447998046875)"><path fill="rgb(28,232,181)" fill-opacity="1" d=" M60.38100051879883,-60.38100051879883 C60.38100051879883,-60.38100051879883 60.38100051879883,60.38100051879883 60.38100051879883,60.38100051879883 C60.38100051879883,60.38100051879883 -60.38100051879883,60.38100051879883 -60.38100051879883,60.38100051879883 C-60.38100051879883,60.38100051879883 -60.38100051879883,-60.38100051879883 -60.38100051879883,-60.38100051879883 C-60.38100051879883,-60.38100051879883 60.38100051879883,-60.38100051879883 60.38100051879883,-60.38100051879883z"></path></g></g><g clip-path="url(#__lottie_element_113)" transform="matrix(0.2711851894855499,0,0,0.2711851894855499,545.7442016601562,694.2222900390625)" opacity="1" style="display: block;"><g opacity="1" transform="matrix(6.244810104370117,0,0,6.244810104370117,-382.6679992675781,-331.447998046875)"><path fill="rgb(28,232,181)" fill-opacity="1" d=" M60.38100051879883,-60.38100051879883 C60.38100051879883,-60.38100051879883 60.38100051879883,60.38100051879883 60.38100051879883,60.38100051879883 C60.38100051879883,60.38100051879883 -60.38100051879883,60.38100051879883 -60.38100051879883,60.38100051879883 C-60.38100051879883,60.38100051879883 -60.38100051879883,-60.38100051879883 -60.38100051879883,-60.38100051879883 C-60.38100051879883,-60.38100051879883 60.38100051879883,-60.38100051879883 60.38100051879883,-60.38100051879883z"></path></g></g><g clip-path="url(#__lottie_element_116)" transform="matrix(0.41710129380226135,0,0,0.41710129380226135,642.3475952148438,839.2235107421875)" opacity="1" style="display: block;"><g opacity="1" transform="matrix(6.244810104370117,0,0,6.244810104370117,-382.6679992675781,-331.447998046875)"><path fill="rgb(28,232,181)" fill-opacity="1" d=" M60.38100051879883,-60.38100051879883 C60.38100051879883,-60.38100051879883 60.38100051879883,60.38100051879883 60.38100051879883,60.38100051879883 C60.38100051879883,60.38100051879883 -60.38100051879883,60.38100051879883 -60.38100051879883,60.38100051879883 C-60.38100051879883,60.38100051879883 -60.38100051879883,-60.38100051879883 -60.38100051879883,-60.38100051879883 C-60.38100051879883,-60.38100051879883 60.38100051879883,-60.38100051879883 60.38100051879883,-60.38100051879883z"></path></g></g><g clip-path="url(#__lottie_element_119)" transform="matrix(0.2711851894855499,0,0,0.2711851894855499,690.5460205078125,402.5740966796875)" opacity="1" style="display: block;"><g opacity="1" transform="matrix(6.244810104370117,0,0,6.244810104370117,-382.6679992675781,-331.447998046875)"><path fill="rgb(28,232,181)" fill-opacity="1" d=" M60.38100051879883,-60.38100051879883 C60.38100051879883,-60.38100051879883 60.38100051879883,60.38100051879883 60.38100051879883,60.38100051879883 C60.38100051879883,60.38100051879883 -60.38100051879883,60.38100051879883 -60.38100051879883,60.38100051879883 C-60.38100051879883,60.38100051879883 -60.38100051879883,-60.38100051879883 -60.38100051879883,-60.38100051879883 C-60.38100051879883,-60.38100051879883 60.38100051879883,-60.38100051879883 60.38100051879883,-60.38100051879883z"></path></g></g><g clip-path="url(#__lottie_element_122)" transform="matrix(0.12847939133644104,0,0,0.12847939133644104,652.9151000976562,490.37677001953125)" opacity="1" style="display: block;"><g opacity="1" transform="matrix(6.244810104370117,0,0,6.244810104370117,-382.6679992675781,-331.447998046875)"><path fill="rgb(28,232,181)" fill-opacity="1" d=" M60.38100051879883,-60.38100051879883 C60.38100051879883,-60.38100051879883 60.38100051879883,60.38100051879883 60.38100051879883,60.38100051879883 C60.38100051879883,60.38100051879883 -60.38100051879883,60.38100051879883 -60.38100051879883,60.38100051879883 C-60.38100051879883,60.38100051879883 -60.38100051879883,-60.38100051879883 -60.38100051879883,-60.38100051879883 C-60.38100051879883,-60.38100051879883 60.38100051879883,-60.38100051879883 60.38100051879883,-60.38100051879883z"></path></g></g><g clip-path="url(#__lottie_element_125)" transform="matrix(0.5011773705482483,0,0,0.5011773705482483,771.8306884765625,731.7943115234375)" opacity="1" style="display: block;"><g opacity="1" transform="matrix(6.244810104370117,0,0,6.244810104370117,-382.6679992675781,-331.447998046875)"><path fill="rgb(28,232,181)" fill-opacity="1" d=" M60.38100051879883,-60.38100051879883 C60.38100051879883,-60.38100051879883 60.38100051879883,60.38100051879883 60.38100051879883,60.38100051879883 C60.38100051879883,60.38100051879883 -60.38100051879883,60.38100051879883 -60.38100051879883,60.38100051879883 C-60.38100051879883,60.38100051879883 -60.38100051879883,-60.38100051879883 -60.38100051879883,-60.38100051879883 C-60.38100051879883,-60.38100051879883 60.38100051879883,-60.38100051879883 60.38100051879883,-60.38100051879883z"></path></g></g><g clip-path="url(#__lottie_element_128)" transform="matrix(0.5011773705482483,0,0,0.5011773705482483,761.658935546875,826.91162109375)" opacity="1" style="display: block;"><g opacity="1" transform="matrix(6.244810104370117,0,0,6.244810104370117,-382.6679992675781,-331.447998046875)"><path fill="rgb(28,232,181)" fill-opacity="1" d=" M60.38100051879883,-60.38100051879883 C60.38100051879883,-60.38100051879883 60.38100051879883,60.38100051879883 60.38100051879883,60.38100051879883 C60.38100051879883,60.38100051879883 -60.38100051879883,60.38100051879883 -60.38100051879883,60.38100051879883 C-60.38100051879883,60.38100051879883 -60.38100051879883,-60.38100051879883 -60.38100051879883,-60.38100051879883 C-60.38100051879883,-60.38100051879883 60.38100051879883,-60.38100051879883 60.38100051879883,-60.38100051879883z"></path></g></g><g clip-path="url(#__lottie_element_131)" transform="matrix(0.12847939133644104,0,0,0.12847939133644104,863.9376220703125,305.8521728515625)" opacity="1" style="display: block;"><g opacity="1" transform="matrix(6.244810104370117,0,0,6.244810104370117,-382.6679992675781,-331.447998046875)"><path fill="rgb(28,232,181)" fill-opacity="1" d=" M60.38100051879883,-60.38100051879883 C60.38100051879883,-60.38100051879883 60.38100051879883,60.38100051879883 60.38100051879883,60.38100051879883 C60.38100051879883,60.38100051879883 -60.38100051879883,60.38100051879883 -60.38100051879883,60.38100051879883 C-60.38100051879883,60.38100051879883 -60.38100051879883,-60.38100051879883 -60.38100051879883,-60.38100051879883 C-60.38100051879883,-60.38100051879883 60.38100051879883,-60.38100051879883 60.38100051879883,-60.38100051879883z"></path></g></g><g clip-path="url(#__lottie_element_134)" transform="matrix(0.2711851894855499,0,0,0.2711851894855499,843.9636840820312,561.8865356445312)" opacity="1" style="display: block;"><g opacity="1" transform="matrix(6.244810104370117,0,0,6.244810104370117,-382.6679992675781,-331.447998046875)"><path fill="rgb(28,232,181)" fill-opacity="1" d=" M60.38100051879883,-60.38100051879883 C60.38100051879883,-60.38100051879883 60.38100051879883,60.38100051879883 60.38100051879883,60.38100051879883 C60.38100051879883,60.38100051879883 -60.38100051879883,60.38100051879883 -60.38100051879883,60.38100051879883 C-60.38100051879883,60.38100051879883 -60.38100051879883,-60.38100051879883 -60.38100051879883,-60.38100051879883 C-60.38100051879883,-60.38100051879883 60.38100051879883,-60.38100051879883 60.38100051879883,-60.38100051879883z"></path></g></g><g clip-path="url(#__lottie_element_137)" transform="matrix(0.6211238503456116,0,0,0.6211238503456116,902.417236328125,775.6893920898438)" opacity="1" style="display: block;"><g opacity="1" transform="matrix(6.244810104370117,0,0,6.244810104370117,-382.6679992675781,-331.447998046875)"><path fill="rgb(28,232,181)" fill-opacity="1" d=" M60.38100051879883,-60.38100051879883 C60.38100051879883,-60.38100051879883 60.38100051879883,60.38100051879883 60.38100051879883,60.38100051879883 C60.38100051879883,60.38100051879883 -60.38100051879883,60.38100051879883 -60.38100051879883,60.38100051879883 C-60.38100051879883,60.38100051879883 -60.38100051879883,-60.38100051879883 -60.38100051879883,-60.38100051879883 C-60.38100051879883,-60.38100051879883 60.38100051879883,-60.38100051879883 60.38100051879883,-60.38100051879883z"></path></g></g><g clip-path="url(#__lottie_element_140)" transform="matrix(0.2711851894855499,0,0,0.2711851894855499,831.8726806640625,857.5718383789062)" opacity="1" style="display: block;"><g opacity="1" transform="matrix(6.244810104370117,0,0,6.244810104370117,-382.6679992675781,-331.447998046875)"><path fill="rgb(28,232,181)" fill-opacity="1" d=" M60.38100051879883,-60.38100051879883 C60.38100051879883,-60.38100051879883 60.38100051879883,60.38100051879883 60.38100051879883,60.38100051879883 C60.38100051879883,60.38100051879883 -60.38100051879883,60.38100051879883 -60.38100051879883,60.38100051879883 C-60.38100051879883,60.38100051879883 -60.38100051879883,-60.38100051879883 -60.38100051879883,-60.38100051879883 C-60.38100051879883,-60.38100051879883 60.38100051879883,-60.38100051879883 60.38100051879883,-60.38100051879883z"></path></g></g><g clip-path="url(#__lottie_element_143)" transform="matrix(0.6211238503456116,0,0,0.6211238503456116,606.5440673828125,633.9375)" opacity="1" style="display: block;"><g opacity="1" transform="matrix(6.244810104370117,0,0,6.244810104370117,-382.6679992675781,-331.447998046875)"><path fill="rgb(28,232,181)" fill-opacity="1" d=" M60.38100051879883,-60.38100051879883 C60.38100051879883,-60.38100051879883 60.38100051879883,60.38100051879883 60.38100051879883,60.38100051879883 C60.38100051879883,60.38100051879883 -60.38100051879883,60.38100051879883 -60.38100051879883,60.38100051879883 C-60.38100051879883,60.38100051879883 -60.38100051879883,-60.38100051879883 -60.38100051879883,-60.38100051879883 C-60.38100051879883,-60.38100051879883 60.38100051879883,-60.38100051879883 60.38100051879883,-60.38100051879883z"></path></g></g><g clip-path="url(#__lottie_element_146)" transform="matrix(0.5550225377082825,0,0,0.5550225377082825,654.0468139648438,697.0391235351562)" opacity="1" style="display: block;"><g opacity="1" transform="matrix(6.244810104370117,0,0,6.244810104370117,-382.6679992675781,-331.447998046875)"><path fill="rgb(28,232,181)" fill-opacity="1" d=" M60.38100051879883,-60.38100051879883 C60.38100051879883,-60.38100051879883 60.38100051879883,60.38100051879883 60.38100051879883,60.38100051879883 C60.38100051879883,60.38100051879883 -60.38100051879883,60.38100051879883 -60.38100051879883,60.38100051879883 C-60.38100051879883,60.38100051879883 -60.38100051879883,-60.38100051879883 -60.38100051879883,-60.38100051879883 C-60.38100051879883,-60.38100051879883 60.38100051879883,-60.38100051879883 60.38100051879883,-60.38100051879883z"></path></g></g><g clip-path="url(#__lottie_element_149)" transform="matrix(0.2711851894855499,0,0,0.2711851894855499,388.5704345703125,694.4207763671875)" opacity="1" style="display: block;"><g opacity="1" transform="matrix(6.244810104370117,0,0,6.244810104370117,-382.6679992675781,-331.447998046875)"><path fill="rgb(28,232,181)" fill-opacity="1" d=" M60.38100051879883,-60.38100051879883 C60.38100051879883,-60.38100051879883 60.38100051879883,60.38100051879883 60.38100051879883,60.38100051879883 C60.38100051879883,60.38100051879883 -60.38100051879883,60.38100051879883 -60.38100051879883,60.38100051879883 C-60.38100051879883,60.38100051879883 -60.38100051879883,-60.38100051879883 -60.38100051879883,-60.38100051879883 C-60.38100051879883,-60.38100051879883 60.38100051879883,-60.38100051879883 60.38100051879883,-60.38100051879883z"></path></g></g><g clip-path="url(#__lottie_element_152)" transform="matrix(0.12847939133644104,0,0,0.12847939133644104,284.0880432128906,837.7549438476562)" opacity="1" style="display: block;"><g opacity="1" transform="matrix(6.244810104370117,0,0,6.244810104370117,-382.6679992675781,-331.447998046875)"><path fill="rgb(28,232,181)" fill-opacity="1" d=" M60.38100051879883,-60.38100051879883 C60.38100051879883,-60.38100051879883 60.38100051879883,60.38100051879883 60.38100051879883,60.38100051879883 C60.38100051879883,60.38100051879883 -60.38100051879883,60.38100051879883 -60.38100051879883,60.38100051879883 C-60.38100051879883,60.38100051879883 -60.38100051879883,-60.38100051879883 -60.38100051879883,-60.38100051879883 C-60.38100051879883,-60.38100051879883 60.38100051879883,-60.38100051879883 60.38100051879883,-60.38100051879883z"></path></g></g></g></svg>
